<?xml version="1.0" encoding="UTF-8"?>
<svg version="1.1" xmlns="http://www.w3.org/2000/svg" width="512" height="512">
<path d="M0 0 C4.96841101 4.11218651 5.91349344 8.84292835 7 15 C7.3679493 19.35487473 7.37493674 23.67087003 7.328125 28.0390625 C7.32625183 29.27699554 7.32437866 30.51492859 7.32244873 31.79037476 C7.31575225 34.41089575 7.30188599 37.03140717 7.28125 39.65185547 C7.25068793 43.53753661 7.24032188 47.42280536 7.234375 51.30859375 C7.18869883 66.0472767 6.86829796 80.7616201 6.38839722 95.4911499 C5.88715979 110.94974823 5.5954937 126.41003264 5.375 141.875 C5.36409836 142.6391711 5.35319672 143.40334221 5.34196472 144.19067001 C4.75937561 185.79185589 5.2330391 227.33324082 6.7734375 268.91015625 C6.82514603 270.3107664 6.82514603 270.3107664 6.87789917 271.73967171 C7.21995653 280.97122873 7.57281394 290.20216328 7.96143341 299.43188572 C9.26072231 330.39752305 9.26072231 330.39752305 8.7734375 342.4140625 C8.74577301 343.20114594 8.71810852 343.98822937 8.68960571 344.79916382 C8.34789666 350.55927565 7.22612816 356.53535811 3.25 360.9375 C-2.43807442 363.62353514 -5.94484556 363.28963807 -11.8125 361.25 C-33.0360029 352.41092099 -51.71609078 336.99962245 -69.26025391 322.43994141 C-71.70011101 320.4205368 -74.16419564 318.43129039 -76.625 316.4375 C-86.39265553 308.42714381 -95.92410232 300.17344317 -105.19140625 291.58984375 C-107.83173346 289.15516094 -110.50346386 286.76126942 -113.1875 284.375 C-117.31442045 280.68074057 -121.23022487 276.81935118 -125.08984375 272.84765625 C-128.58844673 269.46352699 -130.76767562 268.77924059 -135.57032776 268.82441711 C-136.69760536 268.84945564 -136.69760536 268.84945564 -137.84765625 268.875 C-139.48502308 268.89245105 -141.12239306 268.90960936 -142.75976562 268.92651367 C-143.62384033 268.93895111 -144.48791504 268.95138855 -145.37817383 268.96420288 C-225.17569306 270.02835124 -225.17569306 270.02835124 -241 260 C-244.32704066 254.26583775 -245.08332911 247.98594391 -246.0625 241.5 C-246.23241455 240.40212158 -246.4023291 239.30424316 -246.57739258 238.1730957 C-248.22436588 227.15031377 -249.2526732 216.11623161 -250 205 C-250.05784668 204.19385254 -250.11569336 203.38770508 -250.17529297 202.55712891 C-255.7400639 123.08163186 -255.7400639 123.08163186 -240.375 100.625 C-226.44190527 91.09182992 -202.83398277 92.66414205 -186.63710022 93.37023926 C-181.44989125 93.59598713 -176.26115483 93.75404561 -171.0715332 93.91333008 C-168.39704652 94.00304186 -165.72955998 94.13564576 -163.05883789 94.30297852 C-146.26915555 95.66555516 -146.26915555 95.66555516 -131.39404297 89.16357422 C-127.48063228 85.49003669 -124.12626324 81.48202068 -120.85231018 77.23803711 C-117.93936358 73.71849559 -114.50965624 70.90130647 -111 68 C-109.22429779 66.38032183 -107.45291693 64.75588282 -105.6875 63.125 C-101.27781527 59.1074213 -96.76577023 55.27334396 -92.12109375 51.53125 C-89.77711049 49.64195502 -87.46463263 47.71852648 -85.16015625 45.78125 C-23.25262415 -6.11911162 -23.25262415 -6.11911162 0 0 Z " fill="#020202" transform="translate(286,75)"/>
<path d="M0 0 C4.25622745 1.62168354 6.87360752 4.27386325 10.06640625 7.45703125 C11.3914111 8.73751331 12.71694167 10.01745157 14.04296875 11.296875 C14.70458008 11.94253418 15.36619141 12.58819336 16.04785156 13.25341797 C18.95886741 16.0677875 21.94983638 18.79142853 24.94140625 21.51953125 C29.75452473 25.93934002 34.44538265 30.46205988 39.00390625 35.14453125 C42.35434022 33.69264531 44.50876821 31.86256535 47.05078125 29.2578125 C48.19546875 28.09668945 48.19546875 28.09668945 49.36328125 26.91210938 C50.54664063 25.6968457 50.54664063 25.6968457 51.75390625 24.45703125 C57.31678496 18.76898777 62.94125334 13.29872103 69.00390625 8.14453125 C69.83019531 7.41363281 70.65648437 6.68273437 71.5078125 5.9296875 C74.86351525 3.12159468 77.25166036 1.3160961 81.56640625 0.33203125 C89.32883396 2.16678689 93.66909715 7.45503073 97.77734375 13.99609375 C98.18210937 14.70507812 98.586875 15.4140625 99.00390625 16.14453125 C99.38804687 16.75039062 99.7721875 17.35625 100.16796875 17.98046875 C101.42562529 21.23627119 101.39916408 23.68508418 101.00390625 27.14453125 C99.0625 29.953125 99.0625 29.953125 96.44140625 32.58203125 C95.59449219 33.44699219 94.74757813 34.31195313 93.875 35.203125 C93.41665771 35.66380371 92.95831543 36.12448242 92.48608398 36.59912109 C90.82180116 38.33440527 89.25883337 40.13776402 87.69140625 41.9609375 C83.84690132 46.39295034 79.73817214 50.52238381 75.56640625 54.64453125 C74.83486328 55.3715625 74.10332031 56.09859375 73.34960938 56.84765625 C71.57000801 58.61562624 69.78809707 60.38119503 68.00390625 62.14453125 C69.33479755 65.0724921 70.81098017 67.23533396 73.015625 69.5703125 C73.60923828 70.20259766 74.20285156 70.83488281 74.81445312 71.48632812 C75.43384766 72.13666016 76.05324219 72.78699219 76.69140625 73.45703125 C77.29146484 74.09576172 77.89152344 74.73449219 78.50976562 75.39257812 C81.50731039 78.57042634 84.54607388 81.69401529 87.65625 84.76171875 C90.59284532 87.68181866 93.27334388 90.73388749 95.87890625 93.95703125 C96.63945312 94.89160156 97.4 95.82617188 98.18359375 96.7890625 C100.79721894 100.17107106 101.48105522 102.52237324 101.40234375 106.859375 C100.45107713 112.31516888 96.96717994 116.52913588 92.77734375 119.9765625 C83.55656477 126.31392063 83.55656477 126.31392063 78.47265625 125.9765625 C67.68565447 122.34106981 57.59047153 109.51178424 49.390625 101.70703125 C48.8025708 101.15241211 48.2145166 100.59779297 47.60864258 100.02636719 C46.47608921 98.95791458 45.34936054 97.88324573 44.22924805 96.80175781 C41.16089388 93.75414767 41.16089388 93.75414767 37.00390625 93.14453125 C35.3280491 94.42108547 35.3280491 94.42108547 33.7109375 96.1796875 C33.08477539 96.82075439 32.45861328 97.46182129 31.81347656 98.12231445 C31.15444336 98.810271 30.49541016 99.49822754 29.81640625 100.20703125 C28.45491394 101.59940776 27.09165407 102.99005829 25.7265625 104.37890625 C25.07703613 105.04083984 24.42750977 105.70277344 23.75830078 106.38476562 C21.27386723 108.87680529 18.66844418 111.18551577 15.98046875 113.453125 C12.33914143 116.56912249 8.84738743 119.8570876 5.32421875 123.10546875 C1.90700907 126.10847119 -0.33439741 126.50483064 -4.9140625 126.4140625 C-10.71305961 125.66334805 -14.858498 120.69826471 -18.4375 116.42578125 C-20.98597279 112.69568574 -22.78236507 108.68982775 -22.99609375 104.14453125 C-21.0409822 98.80249782 -17.56642483 95.21338033 -13.68359375 91.20703125 C-12.43085684 89.88944912 -11.17825686 88.57173677 -9.92578125 87.25390625 C-8.95850098 86.24360352 -8.95850098 86.24360352 -7.97167969 85.21289062 C-4.72727759 81.81613153 -1.51757895 78.38720888 1.69140625 74.95703125 C2.57276245 74.02225952 2.57276245 74.02225952 3.47192383 73.06860352 C4.29793091 72.18773071 4.29793091 72.18773071 5.140625 71.2890625 C5.62233154 70.77706299 6.10403809 70.26506348 6.6003418 69.73754883 C8.17808511 67.94684173 9.59408141 66.06919879 11.00390625 64.14453125 C10.34382568 63.4896875 9.68374512 62.83484375 9.00366211 62.16015625 C6.52094159 59.69462999 4.04060433 57.22675291 1.56176758 54.75732422 C0.49498328 53.69552264 -0.57270228 52.63462567 -1.64135742 51.57470703 C-7.64811623 45.61577721 -13.543863 39.6241949 -18.99609375 33.14453125 C-19.77984375 32.23703125 -20.56359375 31.32953125 -21.37109375 30.39453125 C-23.00799458 28.12805318 -23.53748707 26.85540629 -23.99609375 24.14453125 C-22.7184259 18.18208128 -19.78593771 14.36867892 -15.74609375 9.89453125 C-15.29266602 9.38728516 -14.83923828 8.88003906 -14.37207031 8.35742188 C-10.3570246 4.0916119 -6.10173924 0.29434726 0 0 Z " fill="#050505" transform="translate(365.99609375,191.85546875)"/>
</svg>
