<?xml version="1.0" encoding="UTF-8"?>
<svg version="1.1" xmlns="http://www.w3.org/2000/svg" width="512" height="512">
<path d="M0 0 C6.82659258 6.23297584 7.47966547 14.10189125 7.92062378 22.86274719 C8.4037803 35.87202914 8.06814045 48.92725778 7.5625 61.9296875 C6.08292458 100.32382429 5.71246376 138.70363886 5.6875 177.125 C5.68664398 178.44232368 5.68578796 179.75964737 5.68490601 181.11688995 C5.67105338 223.24553992 6.51270834 265.26743207 8.44216919 307.34968376 C8.84252502 316.14356456 9.13628471 324.92634497 9.14453125 333.73046875 C9.14565918 334.58823914 9.14678711 335.44600952 9.14794922 336.32977295 C9.09192407 344.76651319 8.84603538 352.83998273 4 360 C0.88537821 362.66967582 -0.52394732 363.02692721 -4.66015625 362.79296875 C-9.25697293 362.1249881 -13.10444618 360.47362663 -17.25 358.4375 C-17.99161377 358.07962402 -18.73322754 357.72174805 -19.49731445 357.35302734 C-26.06274443 354.10973477 -32.05610232 350.2748827 -38 346 C-39.1175682 345.21873243 -40.23609616 344.43883636 -41.35546875 343.66015625 C-61.13971646 329.81394601 -79.89544493 314.26326572 -97.7578125 298.02734375 C-99.71208424 296.26032801 -101.69059737 294.53086471 -103.6875 292.8125 C-107.74805224 289.27508639 -111.68599522 285.60890285 -115.625 281.9375 C-116.25881592 281.34751221 -116.89263184 280.75752441 -117.5456543 280.1496582 C-118.47051636 279.28473755 -118.47051636 279.28473755 -119.4140625 278.40234375 C-119.9601416 277.89179443 -120.5062207 277.38124512 -121.06884766 276.85522461 C-123 275 -123 275 -124.26538086 273.47006226 C-127.14109166 270.16547558 -128.42476021 269.09565753 -132.90527344 268.35058594 C-134.39057558 268.36479951 -135.875804 268.41128904 -137.359375 268.484375 C-138.16873001 268.49846909 -138.97808502 268.51256317 -139.81196594 268.52708435 C-141.55226402 268.55953334 -143.29235826 268.60506962 -145.03201294 268.66244507 C-149.65959949 268.81151422 -154.28847066 268.85512994 -158.91796875 268.91015625 C-160.32235451 268.93031548 -160.32235451 268.93031548 -161.75511169 268.95088196 C-170.54872294 269.05711875 -179.28773769 268.74349765 -188.0625 268.1875 C-188.75727448 268.14362152 -189.45204895 268.09974304 -190.1678772 268.05453491 C-199.28172461 267.46031318 -208.36879029 266.64942681 -217.4375 265.5625 C-218.35990479 265.45252686 -219.28230957 265.34255371 -220.23266602 265.22924805 C-238.15840673 262.848991 -238.15840673 262.848991 -242 258 C-250.25378384 235.63588718 -249.93899609 208.93235468 -250.625 185.375 C-250.64712555 184.62042511 -250.6692511 183.86585022 -250.69204712 183.08840942 C-252.60158841 114.83507723 -252.60158841 114.83507723 -240 101 C-224.95000628 90.58077358 -199.22193132 92.73682293 -181.92578125 93.296875 C-180.00960495 93.34872704 -180.00960495 93.34872704 -178.05471802 93.40162659 C-172.80642988 93.54465036 -167.56172715 93.68861892 -162.31762695 93.94628906 C-146.48706496 95.34451003 -146.48706496 95.34451003 -132.19677734 89.95532227 C-129.11331209 87.1171874 -126.56583766 84.01396835 -124.16313171 80.58836365 C-122.67823302 78.56059751 -120.95238293 77.009179 -119 75.4375 C-115.91629043 72.82922317 -112.96206344 70.11000798 -110.01928711 67.34545898 C-104.41966346 62.08615632 -98.74956642 57.02369172 -92.74609375 52.22265625 C-90.3114201 50.2520598 -87.93773403 48.22559604 -85.57299805 46.17211914 C-24.66866942 -6.47047067 -24.66866942 -6.47047067 0 0 Z " fill="#020202" transform="translate(297,75)"/>
<path d="M0 0 C2.66045335 2.27462694 5.21128331 4.65337471 7.75 7.0625 C8.81214722 8.06821045 8.81214722 8.06821045 9.89575195 9.09423828 C49.71167374 47.10633478 72.20180176 97.04740594 74 152 C74.81856176 205.07775209 51.58035565 254.19097466 15.30078125 291.91796875 C13.6206991 293.63625306 11.93710683 295.35111239 10.25 297.0625 C9.45779053 297.87251465 8.66558105 298.6825293 7.84936523 299.51708984 C-3.6792107 311.0299872 -3.6792107 311.0299872 -11.625 311.5625 C-16.00557302 311.29060236 -18.67221622 309.93161904 -22 307 C-25.15050794 303.3244074 -25.37120784 300.03298783 -25.49609375 295.37890625 C-24.11432526 288.75294552 -18.49216391 284.39098314 -13.6875 280.0625 C-6.56287066 273.57053199 0.39522358 267.13742789 6.3125 259.5 C7.01016479 258.601604 7.01016479 258.601604 7.72192383 257.68505859 C16.58176529 246.13291725 23.89116213 234.213938 30 221 C30.54527344 219.83726562 31.09054687 218.67453125 31.65234375 217.4765625 C49.22498007 178.39645017 48.87736588 133.885229 33.93652344 94.03881836 C22.11895123 64.11579817 1.72755264 41.48333259 -20.83984375 19.1953125 C-24.23416047 15.74575374 -24.90316642 14.00061369 -25.375 9.125 C-25.26237839 4.80515691 -23.7885869 2.33081214 -21 -1 C-14.23060215 -7.1347668 -6.81326431 -5.23832406 0 0 Z " fill="#070707" transform="translate(392,107)"/>
<path d="M0 0 C23.16635112 11.58317556 41.06742845 43.19776304 49.328125 66.94726562 C50.58515458 70.78778333 51.69543997 74.66195979 52.75 78.5625 C52.94883789 79.29315674 53.14767578 80.02381348 53.35253906 80.77661133 C56.34251015 92.47365518 57.36932303 104.2043295 57.3125 116.25 C57.30686035 117.51706787 57.3012207 118.78413574 57.29541016 120.08959961 C57.16762994 130.00901323 56.38932244 139.3728853 54 149 C53.81195801 149.77537109 53.62391602 150.55074219 53.43017578 151.34960938 C46.1638325 180.32249126 30.80701599 204.06756723 10.125 225.1875 C9.32195435 226.01725342 9.32195435 226.01725342 8.50268555 226.86376953 C4.88352397 230.47555549 1.93309925 232.80105936 -3.24609375 233.15234375 C-9.07184371 232.58119179 -11.93957957 231.25848972 -16 227 C-18.28719474 223.98506149 -18.29474667 220.92705212 -18.4609375 217.1953125 C-17.24592114 211.40853964 -12.58946296 207.44872654 -8.4375 203.5625 C11.38015487 184.31263376 26.70189896 155.88813723 28.16113281 127.91064453 C28.64912467 89.81890833 19.79166599 59.01358319 -7 31 C-9.36639998 28.68166752 -11.73859028 26.37448215 -14.15234375 24.10546875 C-17.03033584 20.82589637 -17.89775737 17.92018363 -18.375 13.625 C-17.81643281 8.22551714 -15.95816069 4.73437089 -11.8125 1.0625 C-7.88498016 -0.42122972 -4.14403422 -0.7237868 0 0 Z " fill="#070707" transform="translate(365,144)"/>
<path d="M0 0 C12.44416916 6.3490659 19.91079278 20.02455913 26 32 C26.4434375 32.85078125 26.886875 33.7015625 27.34375 34.578125 C37.58589475 55.43712711 39.21181129 81.75770796 33 104 C32.6596875 105.2271875 32.319375 106.454375 31.96875 107.71875 C26.83245837 124.5158118 17.06346351 144.05242976 2 154 C-2.35706947 155.49584022 -5.34518471 155.19644459 -9.75 153.875 C-13.29534583 151.82960818 -14.98773213 150.56016623 -17 147 C-18.18420975 142.5816726 -18.54963427 139.34731776 -16.796875 135.05078125 C-14.91198009 131.8505575 -12.813653 129.36566687 -10.3125 126.625 C3.97142113 110.11003643 8.44464697 89.94489876 7.21875 68.54150391 C5.81362389 52.21632222 -2.33118802 37.12568756 -13 25 C-17.2444699 19.95396654 -18.56650422 16.68474975 -18 10 C-14.19432608 2.53502424 -8.39836756 -1.63911801 0 0 Z " fill="#080808" transform="translate(343,183)"/>
<path d="M0 0 C0.66 0.33 1.32 0.66 2 1 C-0.31 3.31 -2.62 5.62 -5 8 C-5 5 -5 5 -2.5 2.3125 C-1.675 1.549375 -0.85 0.78625 0 0 Z " fill="#484848" transform="translate(354,145)"/>
</svg>
